<svg id="visual" viewBox="0 0 1920 1080" width="1920" height="1080" xmlns="http://www.w3.org/2000/svg" xmlns:xlink="http://www.w3.org/1999/xlink" version="1.1"><rect width="1920" height="1080" fill="#ffffff"></rect><g><g transform="translate(1320 1071)"><path d="M278.2 -80.2C316.3 26.8 272.3 170.6 174.4 242.3C76.4 314 -75.7 313.7 -169.1 243.3C-262.6 172.9 -297.4 32.5 -259.5 -74.3C-221.5 -181 -110.8 -254.1 4.7 -255.6C120.1 -257.1 240.1 -187.1 278.2 -80.2Z" fill="none" stroke="#6600FF" stroke-width="43"></path></g><g transform="translate(983 127)"><path d="M122.8 -47.2C139.8 12.2 120.7 76 77.7 107.3C34.8 138.6 -32.1 137.3 -79.7 104.1C-127.3 70.8 -155.8 5.5 -139.3 -53.3C-122.8 -112 -61.4 -164.2 -4.2 -162.8C52.9 -161.4 105.9 -106.5 122.8 -47.2Z" stroke="#6600FF" fill="none" stroke-width="43"></path></g><g transform="translate(186 827)"><path d="M166.3 -57.4C190.3 20 167.3 109.3 105.3 157.2C43.3 205.2 -57.8 211.9 -120 166.4C-182.3 120.8 -205.9 23.1 -179.4 -57.5C-153 -138.2 -76.5 -201.8 -2.7 -200.9C71.1 -200.1 142.2 -134.7 166.3 -57.4Z" stroke="#6600FF" fill="none" stroke-width="43"></path></g></g></svg>